<svg width="20" height="21" viewBox="0 0 20 21" fill="none" xmlns="http://www.w3.org/2000/svg">
<path d="M9.97398 0.00179236C9.97398 0.00179236 15.8699 -0.262621 18.9947 5.64108H9.47263C9.47263 5.64108 7.67435 5.58214 6.14132 7.75602C5.69925 8.66658 5.22763 9.6065 5.75822 11.4567C4.99171 10.1645 1.68991 4.43688 1.68991 4.43688C1.68991 4.43688 4.01905 0.236669 9.97398 0.00179236" fill="#E6322A"/>
<path d="M18.6878 14.991C18.6878 14.991 15.9689 20.2099 9.27478 19.9534C10.1006 18.5293 14.037 11.738 14.037 11.738C14.037 11.738 14.9873 10.2159 13.8652 7.80627C13.2947 6.96932 12.7137 6.09227 10.8401 5.62467C12.3469 5.60981 18.9758 5.62563 18.9758 5.62563C18.9758 5.62563 21.4616 9.73567 18.6878 14.991Z" fill="#FEDA00"/>
<path d="M1.30205 15.0307C1.30205 15.0307 -1.87465 10.0747 1.6958 4.42732C2.52087 5.85203 6.45513 12.6446 6.45513 12.6446C6.45513 12.6446 7.30269 14.2256 9.95848 14.4623C10.9708 14.3887 12.0239 14.326 13.3673 12.9433C12.6266 14.2507 9.29798 19.9626 9.29798 19.9626C9.29798 19.9626 4.4827 20.0521 1.30205 15.0307" fill="#66B54C"/>
<path d="M9.27478 20.0018L10.6142 14.4332C10.6142 14.4332 12.0868 14.3186 13.3209 12.9693C12.5549 14.3119 9.27478 20.0018 9.27478 20.0018Z" fill="#61AC48"/>
<path d="M5.48813 10.0632C5.48813 7.60835 7.4853 5.61827 9.9494 5.61827C12.4133 5.61827 14.4106 7.60835 14.4106 10.0632C14.4106 12.5182 12.4133 14.5083 9.9494 14.5083C7.4853 14.5083 5.48813 12.5182 5.48813 10.0632Z" fill="white"/>
<path d="M6.23474 10.0632C6.23474 12.1071 7.89769 13.7642 9.94937 13.7642C12.0006 13.7642 13.6638 12.1071 13.6638 10.0632C13.6638 8.01929 12.0006 6.36235 9.94937 6.36235C7.89769 6.36235 6.23474 8.01929 6.23474 10.0632" fill="url(#paint0_linear)"/>
<path d="M18.9759 5.62563L13.4606 7.23676C13.4606 7.23676 12.6289 6.02076 10.8401 5.62467C12.39 5.61941 18.9759 5.62563 18.9759 5.62563Z" fill="#F0CF00"/>
<path d="M5.65087 11.2567C4.87577 9.91936 1.69003 4.43677 1.69003 4.43677L5.77569 8.46355C5.77569 8.46355 5.35579 9.32405 5.51503 10.5531L5.65087 11.2567Z" fill="#DA3028"/>
<defs>
<linearGradient id="paint0_linear" x1="9.94928" y1="6.41464" x2="9.94928" y2="13.5427" gradientUnits="userSpaceOnUse">
<stop stop-color="#96C1E9"/>
<stop offset="1" stop-color="#136DB5"/>
</linearGradient>
</defs>
</svg>
